<svg id="Capa_1" enable-background="new 0 0 511.999 511.999" height="512" viewBox="0 0 511.999 511.999" width="512" xmlns="http://www.w3.org/2000/svg"><g><g><path d="m503.186 412.281c-10.413 53.372-57.997 93.451-114.703 92.186-61.6-1.374-110.733-50.945-111.59-112.555-.798-57.33 40.655-105.135 95.209-114.265.062-.01.126-.021.191-.031 7.49-1.163 11.595 8.298 5.731 13.101-18.251 14.949-29.777 37.805-29.346 63.338.724 42.888 35.756 77.92 78.644 78.644 25.515.431 48.356-11.078 63.305-29.306 4.63-5.645 13.791-1.684 13.018 5.576-.144 1.351-.297 2.482-.459 3.312z" fill="#e7a561"/><path d="m404.792 503.682c-5.33.64-10.78.91-16.31.79-61.6-1.37-110.729-50.95-111.589-112.56-.8-57.33 40.66-105.129 95.21-114.259.06-.01.13-.02.19-.03 4.04-.63 7.1 1.83 8.14 4.99-44.79 15.87-76.74 58.91-76.04 109.299.81 57.83 44.139 105.06 100.399 111.77z" fill="#e29375"/><g><circle cx="163.505" cy="162.699" fill="#f6e266" r="82.88"/><path d="m186.808 242.258c-7.39 2.163-15.213 3.323-23.306 3.323-45.771 0-82.876-37.111-82.876-82.882s37.106-82.882 82.876-82.882c8.094 0 15.916 1.16 23.306 3.323-34.429 10.067-59.576 41.877-59.576 79.559s25.147 69.492 59.576 79.559z" fill="#ffd064"/><g fill="#f6e266"><path d="m164.383 50.035h-1.755c-6.189 0-11.321-4.792-11.744-10.966l-1.303-18.992c-.467-6.802 4.926-12.577 11.744-12.577h4.36c6.819 0 12.211 5.775 11.744 12.577l-1.303 18.992c-.423 6.174-5.555 10.966-11.743 10.966z"/><path d="m162.628 275.362h1.755c6.189 0 11.321 4.792 11.744 10.966l1.303 18.992c.467 6.803-4.926 12.577-11.744 12.577h-4.36c-6.819 0-12.211-5.775-11.744-12.577l1.303-18.992c.422-6.174 5.554-10.966 11.743-10.966z"/><path d="m107.933 64.691-1.52.877c-5.36 3.094-12.2 1.51-15.654-3.625l-10.623-15.796c-3.805-5.658-2.023-13.355 3.882-16.764l3.776-2.18c5.905-3.409 13.462-1.104 16.459 5.02l8.368 17.099c2.72 5.558.672 12.274-4.688 15.369z"/><path d="m219.077 260.707 1.52-.877c5.36-3.094 12.2-1.51 15.654 3.625l10.624 15.796c3.805 5.658 2.023 13.355-3.882 16.764l-3.776 2.18c-5.905 3.409-13.462 1.104-16.459-5.02l-8.368-17.099c-2.721-5.559-.672-12.275 4.687-15.369z"/><path d="m66.374 105.607-.877 1.52c-3.094 5.36-9.81 7.408-15.369 4.688l-17.099-8.368c-6.124-2.997-8.43-10.554-5.02-16.459l2.18-3.776c3.409-5.905 11.107-7.687 16.764-3.882l15.797 10.623c5.135 3.454 6.719 10.295 3.624 15.654z"/><path d="m260.636 219.79.877-1.52c3.094-5.36 9.81-7.408 15.369-4.688l17.099 8.368c6.124 2.997 8.43 10.554 5.02 16.46l-2.18 3.776c-3.409 5.905-11.107 7.687-16.764 3.882l-15.796-10.624c-5.135-3.454-6.719-10.294-3.625-15.654z"/><path d="m50.842 161.821v1.755c0 6.189-4.792 11.321-10.966 11.744l-18.992 1.303c-6.803.467-12.577-4.926-12.577-11.744v-4.36c0-6.819 5.775-12.211 12.577-11.744l18.992 1.303c6.174.423 10.966 5.555 10.966 11.743z"/><path d="m276.169 163.576v-1.755c0-6.189 4.792-11.321 10.966-11.744l18.992-1.303c6.803-.467 12.577 4.926 12.577 11.744v4.36c0 6.819-5.775 12.211-12.577 11.744l-18.992-1.303c-6.174-.422-10.966-5.554-10.966-11.743z"/><path d="m65.497 218.271.877 1.52c3.094 5.36 1.51 12.2-3.625 15.654l-15.796 10.624c-5.658 3.805-13.355 2.023-16.764-3.882l-2.18-3.776c-3.409-5.905-1.104-13.462 5.02-16.46l17.099-8.368c5.559-2.72 12.275-.672 15.369 4.688z"/><path d="m261.513 107.127-.877-1.52c-3.094-5.36-1.51-12.2 3.625-15.654l15.796-10.624c5.658-3.805 13.355-2.023 16.764 3.882l2.18 3.776c3.409 5.905 1.104 13.462-5.02 16.459l-17.099 8.368c-5.558 2.721-12.274.672-15.369-4.687z"/><path d="m106.414 259.83 1.52.877c5.36 3.094 7.408 9.81 4.688 15.369l-8.368 17.099c-2.997 6.124-10.554 8.43-16.459 5.02l-3.776-2.18c-5.905-3.409-7.687-11.107-3.882-16.764l10.624-15.796c3.453-5.136 10.293-6.72 15.653-3.625z"/><path d="m220.597 65.568-1.52-.877c-5.36-3.094-7.408-9.81-4.688-15.369l8.368-17.099c2.997-6.124 10.554-8.43 16.459-5.02l3.776 2.18c5.905 3.409 7.687 11.107 3.882 16.764l-10.624 15.796c-3.453 5.135-10.293 6.719-15.653 3.625z"/></g></g><g><path d="m103.001 475.55.084-10.091c-30.527-13.776-55.161-37.539-70.085-67.903-6.084-12.379-.981-27.346 11.398-33.431s27.346-.981 33.431 11.398c6.217 12.649 15.014 23.54 25.735 32.117l.024-2.852c.108-13.053 14.307-21.094 25.557-14.473l60.978 35.887c11.249 6.62 11.114 22.934-.243 29.368l-61.565 34.875c-11.359 6.434-25.423-1.841-25.314-14.895z" fill="#dd636e"/></g><g><path d="m447.482 76.608-3.984 9.271c22.81 24.522 36.321 55.97 38.323 89.744.816 13.769-9.685 25.593-23.454 26.409s-25.593-9.685-26.409-23.454c-.834-14.069-4.728-27.517-11.291-39.577l-1.126 2.62c-5.154 11.993-21.359 13.909-29.167 3.448l-42.325-56.699c-7.808-10.459-1.366-25.449 11.596-26.983l70.266-8.315c12.962-1.533 22.725 11.542 17.571 23.536z" fill="#dd636e"/></g></g><g><path d="m253.885 162.699c0-49.835-40.544-90.38-90.38-90.38s-90.38 40.544-90.38 90.38 40.544 90.38 90.38 90.38 90.38-40.545 90.38-90.38zm-90.38 75.38c-41.564 0-75.38-33.815-75.38-75.38s33.815-75.38 75.38-75.38 75.38 33.815 75.38 75.38-33.815 75.38-75.38 75.38z"/><path d="m143.401 39.582c.69 10.067 9.136 17.953 19.227 17.953h1.755c10.091 0 18.536-7.886 19.227-17.953l1.303-18.991c.364-5.308-1.509-10.583-5.141-14.471s-8.766-6.12-14.086-6.12h-4.36c-5.321 0-10.455 2.23-14.086 6.119s-5.505 9.164-5.141 14.471zm14.802-23.226c.473-.506 1.507-1.356 3.122-1.356h4.36c1.615 0 2.649.85 3.123 1.356.473.507 1.25 1.597 1.139 3.208l-1.303 18.992c-.153 2.231-2.025 3.979-4.262 3.979h-1.755c-2.237 0-4.109-1.748-4.262-3.979l-1.303-18.992c-.109-1.611.668-2.701 1.141-3.208z"/><path d="m164.383 267.862h-1.755c-10.091 0-18.536 7.886-19.227 17.953l-1.303 18.991c-.364 5.308 1.509 10.583 5.141 14.471 3.631 3.889 8.765 6.12 14.086 6.12h4.36c5.321 0 10.455-2.23 14.086-6.12 3.631-3.889 5.505-9.163 5.141-14.471l-1.303-18.992c-.69-10.065-9.135-17.952-19.226-17.952zm4.425 41.179c-.473.506-1.508 1.356-3.123 1.356h-4.36c-1.615 0-2.649-.85-3.123-1.356-.473-.506-1.25-1.597-1.139-3.208l1.303-18.992c.153-2.231 2.025-3.979 4.262-3.979h1.755c2.237 0 4.109 1.748 4.262 3.979l1.303 18.992c.11 1.611-.667 2.702-1.14 3.208z"/><path d="m84.537 66.129c3.693 5.491 9.804 8.501 16.039 8.501 3.272 0 6.58-.83 9.587-2.567l1.52-.877s.001 0 .001-.001c8.739-5.045 12.109-16.097 7.674-25.161l-8.368-17.099c-2.339-4.779-6.599-8.41-11.688-9.962-5.087-1.552-10.649-.917-15.258 1.744l-3.776 2.18c-4.607 2.66-7.938 7.158-9.139 12.342-1.2 5.183-.186 10.688 2.784 15.104zm1.205-27.515c.156-.675.627-1.928 2.026-2.736l3.776-2.18c.76-.439 1.497-.574 2.118-.574.521 0 .961.096 1.264.188.663.202 1.881.758 2.59 2.208l8.368 17.099c.983 2.009.236 4.458-1.699 5.577l-1.521.878c-1.938 1.118-4.432.541-5.681-1.315l-10.624-15.797c-.901-1.34-.773-2.673-.617-3.348z"/><path d="m242.474 259.269c-5.632-8.373-16.889-10.98-25.628-5.934l-1.52.877c-8.738 5.045-12.109 16.097-7.674 25.161l8.368 17.098c2.339 4.779 6.599 8.41 11.688 9.962 1.83.558 3.721.833 5.607.833 3.358 0 6.701-.874 9.652-2.577l3.776-2.18c4.607-2.66 7.939-7.158 9.139-12.342 1.201-5.183.186-10.688-2.784-15.103zm-1.205 27.515c-.156.675-.627 1.928-2.026 2.736l-3.776 2.18c-1.399.808-2.719.588-3.383.386-.663-.202-1.88-.758-2.59-2.208l-8.368-17.098c-.983-2.009-.236-4.459 1.701-5.578l1.519-.877c.667-.385 1.4-.569 2.126-.569 1.382 0 2.737.667 3.556 1.884l10.624 15.796c.901 1.34.773 2.673.617 3.348z"/><path d="m29.732 110.184 17.099 8.367c2.701 1.322 5.578 1.95 8.42 1.95 6.696 0 13.199-3.49 16.741-9.624l.877-1.52c5.045-8.739 2.438-19.996-5.935-25.627l-15.794-10.624c-4.415-2.97-9.921-3.985-15.103-2.784-5.184 1.2-9.682 4.531-12.342 9.139l-2.18 3.776c-2.66 4.608-3.296 10.169-1.744 15.259 1.552 5.089 5.183 9.349 9.961 11.688zm4.772-19.446 2.18-3.776c.808-1.398 2.061-1.869 2.736-2.026.248-.057.585-.111.979-.111.677 0 1.521.158 2.368.728l15.796 10.624c1.856 1.248 2.434 3.743 1.315 5.68l-.877 1.52c-1.119 1.937-3.569 2.684-5.577 1.701l-17.098-8.368c-1.45-.71-2.006-1.928-2.208-2.591-.202-.662-.421-1.983.386-3.381z"/><path d="m286.648 255.568c1.446 0 2.897-.163 4.325-.493 5.184-1.2 9.683-4.531 12.344-9.14l2.18-3.775c2.66-4.608 3.296-10.17 1.743-15.259-1.552-5.089-5.184-9.349-9.962-11.687l-17.099-8.368c-9.066-4.435-20.115-1.064-25.163 7.676l-.875 1.518c-5.046 8.739-2.439 19.996 5.935 25.627l15.796 10.624c3.198 2.152 6.969 3.277 10.776 3.277zm-19.517-32.027c0-.001.001-.001.001-.002l.876-1.518c.785-1.36 2.227-2.134 3.711-2.134.63 0 1.268.14 1.866.433l17.099 8.368c1.451.709 2.007 1.927 2.209 2.59s.421 1.984-.387 3.383l-2.18 3.775c-.808 1.399-2.062 1.87-2.736 2.026-.677.157-2.008.284-3.348-.617l-15.796-10.624c-1.856-1.248-2.433-3.743-1.315-5.68z"/><path d="m21.397 184.105 18.992-1.303c10.067-.69 17.953-9.136 17.953-19.227v-1.755c0-10.091-7.886-18.536-17.953-19.227l-18.992-1.303c-5.307-.363-10.583 1.51-14.471 5.141s-6.119 8.765-6.119 14.086v4.36c0 5.321 2.23 10.455 6.12 14.086 3.569 3.333 8.306 5.186 13.165 5.186.434.001.869-.014 1.305-.044zm-4.234-16.104c-.506-.473-1.356-1.508-1.356-3.123v-4.36c0-1.615.85-2.649 1.356-3.122.474-.442 1.458-1.15 2.899-1.15.101 0 .203.003.308.011l18.992 1.303c2.231.153 3.979 2.025 3.979 4.262v1.755c0 2.237-1.748 4.109-3.979 4.262l-18.992 1.303c-1.611.111-2.701-.668-3.207-1.141z"/><path d="m305.613 141.292-18.991 1.303c-10.067.691-17.953 9.136-17.953 19.227v1.755c0 10.091 7.887 18.536 17.953 19.227l18.991 1.303c.437.03.871.045 1.307.045 4.858 0 9.596-1.853 13.165-5.186 3.889-3.631 6.119-8.765 6.119-14.086v-4.36c0-5.32-2.23-10.455-6.119-14.086-3.889-3.633-9.167-5.505-14.472-5.142zm5.591 19.227v4.36c0 1.615-.85 2.649-1.356 3.123-.506.473-1.599 1.253-3.207 1.139l-18.992-1.303c-2.231-.153-3.979-2.025-3.979-4.262v-1.755c0-2.237 1.748-4.108 3.98-4.262l18.99-1.303c.105-.007.208-.011.309-.011 1.442 0 2.426.708 2.899 1.15.506.474 1.356 1.509 1.356 3.124z"/><path d="m36.036 255.075c1.428.331 2.879.493 4.327.493 3.806 0 7.578-1.125 10.776-3.277l15.796-10.624c8.373-5.632 10.979-16.889 5.935-25.626l-.877-1.52c-5.045-8.739-16.098-12.11-25.161-7.674l-17.098 8.368c-4.779 2.339-8.41 6.599-9.962 11.688s-.917 10.65 1.744 15.259l2.18 3.776c2.658 4.605 7.157 7.937 12.34 9.137zm-1.918-23.798c.202-.663.758-1.88 2.208-2.59l17.098-8.368c.599-.293 1.236-.433 1.867-.433 1.484 0 2.926.773 3.711 2.133l.877 1.52c1.118 1.937.541 4.432-1.315 5.681l-15.796 10.624c-1.34.901-2.674.773-3.348.617-.675-.156-1.928-.627-2.736-2.026l-2.18-3.776c-.807-1.397-.588-2.719-.386-3.382z"/><path d="m254.141 109.356.877 1.52v.001c3.543 6.135 10.045 9.624 16.741 9.624 2.842 0 5.72-.629 8.42-1.95l17.099-8.367c4.779-2.339 8.41-6.599 9.962-11.688 1.553-5.089.917-10.651-1.743-15.258l-2.18-3.777c-2.661-4.608-7.161-7.939-12.345-9.139-5.183-1.201-10.688-.185-15.101 2.784l-15.795 10.624c-8.374 5.631-10.981 16.888-5.935 25.626zm14.306-13.179 15.797-10.624c1.338-.901 2.67-.773 3.346-.617s1.93.627 2.737 2.025l2.18 3.776c.808 1.398.589 2.719.387 3.382s-.758 1.881-2.209 2.591l-17.099 8.367c-2.008.983-4.457.237-5.576-1.7l-.878-1.521c-1.119-1.936-.542-4.431 1.315-5.679z"/><path d="m84.537 259.269-10.624 15.796c-2.97 4.415-3.984 9.92-2.784 15.103 1.2 5.184 4.532 9.682 9.139 12.342l3.776 2.18c2.951 1.704 6.293 2.577 9.652 2.577 1.886 0 3.777-.275 5.606-.833 5.089-1.552 9.349-5.183 11.688-9.962l8.368-17.099c4.435-9.063 1.064-20.116-7.675-25.161l-1.52-.877c-8.738-5.047-19.994-2.439-25.626 5.934zm18.127 7.056 1.52.877c1.937 1.118 2.684 3.568 1.701 5.577l-8.368 17.099c-.709 1.45-1.927 2.005-2.59 2.208-.664.202-1.984.421-3.382-.386l-3.776-2.18c-1.398-.808-1.87-2.061-2.026-2.736s-.284-2.008.617-3.348l10.624-15.795c.819-1.217 2.173-1.885 3.556-1.885.724 0 1.457.184 2.124.569z"/><path d="m215.328 71.186 1.52.877c3.009 1.737 6.315 2.567 9.589 2.567 6.234 0 12.346-3.011 16.039-8.501l10.625-15.796c2.969-4.415 3.984-9.92 2.783-15.104-1.201-5.183-4.532-9.682-9.139-12.342l-3.776-2.18c-4.608-2.66-10.168-3.296-15.259-1.743-5.089 1.552-9.349 5.183-11.688 9.962l-8.368 17.099c-4.436 9.063-1.066 20.115 7.674 25.161zm5.798-18.568 8.368-17.099c.709-1.45 1.927-2.006 2.59-2.208.303-.093.742-.188 1.264-.188.621 0 1.358.136 2.118.574l3.776 2.18c1.398.807 1.87 2.06 2.026 2.735s.284 2.008-.617 3.348l-10.624 15.796c-1.249 1.856-3.742 2.434-5.681 1.315l-1.519-.877c-1.937-1.117-2.684-3.567-1.701-5.576z"/><path d="m501.99 394.395c-6.09-2.548-12.985-.847-17.16 4.24-14.155 17.259-35.056 26.97-57.385 26.567-38.647-.649-70.618-32.619-71.268-71.267-.376-22.337 9.32-43.262 26.61-57.417 5.307-4.356 6.992-11.479 4.195-17.724-2.769-6.182-9.141-9.632-15.917-8.572-.068.01-.138.02-.206.032-28.35 4.745-54.223 19.525-72.853 41.617-18.859 22.364-29.022 50.826-28.618 80.147.24 16.877 3.837 33.158 10.689 48.39 1.7 3.779 6.142 5.461 9.917 3.763 3.777-1.7 5.462-6.14 3.763-9.917-6.007-13.352-9.16-27.634-9.371-42.446-.354-25.708 8.556-50.662 25.087-70.267 16.278-19.304 38.853-32.24 63.589-36.447-20.719 17.068-32.336 42.235-31.884 69.093.382 22.694 9.511 44.112 25.706 60.307 16.196 16.196 37.613 25.325 60.308 25.706 26.732.441 51.855-11.09 68.964-31.72-.124 1.077-.235 1.877-.329 2.363-9.815 50.273-53.648 86.157-104.752 86.157-.805 0-1.621-.009-2.429-.027-31.475-.703-60.841-15.086-80.568-39.46-2.606-3.22-7.328-3.719-10.549-1.111-3.22 2.605-3.717 7.328-1.111 10.548 22.508 27.809 56.002 44.218 91.894 45.02.926.021 1.849.031 2.77.031 58.275 0 108.271-40.938 119.473-98.306.187-.971.361-2.208.553-3.932.7-6.617-2.964-12.792-9.118-15.368z"/><path d="m193.926 419.738-60.978-35.887c-7.62-4.484-16.763-4.561-24.457-.204-4.104 2.324-7.338 5.65-9.474 9.589-5.792-6.206-10.634-13.241-14.458-21.022-3.826-7.785-10.455-13.614-18.665-16.413-8.211-2.8-17.02-2.233-24.804 1.593-7.785 3.826-13.614 10.455-16.414 18.665s-2.233 17.02 1.593 24.804c14.813 30.14 39.299 54.6 69.275 69.333l-.043 5.292c-.073 8.842 4.433 16.797 12.054 21.281 3.87 2.277 8.132 3.417 12.397 3.417 4.135 0 8.272-1.071 12.059-3.216l61.565-34.875c7.692-4.357 12.328-12.237 12.401-21.078.073-8.84-4.432-16.795-12.051-21.279zm-7.743 29.305-61.565 34.875c-4.287 2.43-8.042.756-9.457-.078-1.415-.833-4.702-3.301-4.661-8.229l.083-10.091c.025-2.971-1.707-5.676-4.415-6.898-28.836-13.013-52.431-35.875-66.438-64.376-2.059-4.189-2.363-8.929-.857-13.347s4.643-7.985 8.833-10.044c4.189-2.059 8.93-2.363 13.347-.857 4.418 1.506 7.985 4.643 10.044 8.832 6.686 13.603 16.032 25.266 27.78 34.666 2.243 1.793 5.313 2.149 7.906.917 2.594-1.233 4.255-3.839 4.279-6.71l.024-2.853c.041-4.928 3.368-7.341 4.796-8.15 1.429-.809 5.21-2.421 9.457.079l60.979 35.887c4.247 2.499 4.673 6.587 4.66 8.229-.014 1.64-.508 5.72-4.795 8.148z"/><path d="m384.359 149.557c5.293 7.088 13.698 10.698 22.481 9.657 4.682-.555 8.948-2.369 12.44-5.172 2.934 7.961 4.674 16.322 5.19 24.978.51 8.661 4.363 16.604 10.853 22.365 5.993 5.321 13.569 8.191 21.513 8.191.655 0 1.313-.02 1.973-.059 8.66-.509 16.603-4.363 22.364-10.852 5.76-6.487 8.647-14.83 8.133-23.488-1.109-18.719-5.559-36.793-13.226-53.721-1.708-3.772-6.154-5.448-9.926-3.738-3.773 1.709-5.447 6.153-3.738 9.926 6.906 15.25 10.915 31.54 11.916 48.421.276 4.661-1.277 9.149-4.377 12.64-3.099 3.49-7.37 5.563-12.033 5.837-4.649.283-9.147-1.276-12.64-4.375-3.49-3.098-5.563-7.37-5.838-12.034-.903-15.139-5.004-29.511-12.188-42.717-1.371-2.521-4.033-4.046-6.93-3.908-2.867.131-5.408 1.886-6.545 4.522l-1.135 2.632c-1.943 4.526-5.942 5.464-7.572 5.657s-5.745.217-8.695-3.735l-42.321-56.701c-2.949-3.95-1.76-7.883-1.111-9.391.648-1.508 2.685-5.076 7.584-5.654l70.257-8.32c4.887-.577 7.711 2.421 8.693 3.738.981 1.315 3.055 4.863 1.106 9.395l-3.98 9.27c-1.171 2.726-.624 5.887 1.395 8.062 3.71 3.998 7.166 8.18 10.271 12.431 2.443 3.346 7.135 4.076 10.479 1.634 3.346-2.443 4.077-7.135 1.634-10.48-2.512-3.439-5.227-6.834-8.103-10.135l2.087-4.859c3.492-8.123 2.42-17.203-2.867-24.288-5.289-7.087-13.691-10.698-22.476-9.663l-70.257 8.32c-8.783 1.036-16.111 6.504-19.604 14.626-3.492 8.123-2.419 17.203 2.871 24.288z"/></g></g></svg>